<svg version="1.1" id="Layer_1" xmlns="http://www.w3.org/2000/svg" xmlns:xlink="http://www.w3.org/1999/xlink" x="0px" y="0px"
	 width="100%" viewBox="0 0 1536 1024" enable-background="new 0 0 1536 1024" xml:space="preserve">
<path fill="#121927" opacity="1.000000" stroke="none" 
	d="
M843.000000,1025.000000 
	C562.000000,1025.000000 281.500000,1025.000000 1.000000,1025.000000 
	C1.000000,683.666687 1.000000,342.333344 1.000000,1.000000 
	C513.000000,1.000000 1025.000000,1.000000 1537.000000,1.000000 
	C1537.000000,342.333344 1537.000000,683.666687 1537.000000,1025.000000 
	C1305.833374,1025.000000 1074.666626,1025.000000 843.000000,1025.000000 
M735.496582,435.525574 
	C735.496582,435.525574 735.508667,435.593842 735.640747,435.955292 
	C735.776733,436.184357 735.967590,436.350464 736.245544,436.695496 
	C736.245544,436.695496 736.450989,436.827179 736.724243,437.394073 
	C741.477539,441.934143 746.230835,446.474213 751.371765,451.577118 
	C773.873413,465.707275 805.963562,458.276062 816.300598,443.864349 
	C812.468140,440.275574 808.439331,436.810455 804.795837,432.978943 
	C802.508301,430.573456 800.846130,430.867096 798.570007,432.823792 
	C792.093323,438.391479 784.519287,440.774139 775.311462,439.840179 
	C769.822937,439.432068 765.119446,437.243713 761.057922,433.579803 
	C759.362305,432.050232 757.639709,430.550598 755.672791,428.385345 
	C750.396301,423.096619 749.103638,416.153992 747.886230,408.517334 
	C747.922058,407.020569 747.957886,405.523773 748.220459,403.534851 
	C748.164429,403.363159 748.108337,403.191467 747.995483,403.027924 
	C747.995483,403.027924 748.043579,403.059082 748.267090,402.363586 
	C748.457764,400.918213 748.648438,399.472870 749.105713,397.354645 
	C752.916931,387.107239 759.604004,379.574615 770.215576,376.336639 
	C782.570679,372.566559 793.054077,376.537323 802.114563,385.578064 
	C806.939697,381.135742 811.511963,376.926270 816.063354,372.736053 
	C800.378845,354.335724 772.934570,349.993011 752.049805,362.524994 
	C737.812378,371.068237 729.200134,383.484955 727.243286,401.114502 
	C727.272888,404.729889 727.302490,408.345276 727.305542,412.652557 
	C727.450562,413.084290 727.595520,413.516052 727.533508,414.699677 
	C729.909119,421.186127 732.284729,427.672546 734.766052,434.685730 
	C735.006042,434.942841 735.245972,435.199921 735.496582,435.525574 
M911.025940,433.616974 
	C913.615479,438.102783 916.205017,442.588593 919.084961,447.686401 
	C925.285889,454.901855 933.298340,458.330475 942.649231,458.985382 
	C952.023804,459.641937 960.135010,456.723450 967.153076,449.585968 
	C967.305908,452.854767 967.420166,455.298981 967.535583,457.768250 
	C974.037659,457.768250 980.229736,457.768250 986.536194,457.768250 
	C986.536194,450.529663 986.536194,443.743866 986.711426,436.044250 
	C986.611389,421.685852 986.511353,407.327454 986.624817,392.060028 
	C986.613098,379.659210 986.601379,367.258423 986.779541,354.327332 
	C986.562927,353.685547 986.346375,353.043732 985.227173,352.075897 
	C979.270386,352.075897 973.313660,352.075897 966.829895,352.075897 
	C966.829895,364.559937 966.829895,376.566071 966.829895,389.029633 
	C948.255554,372.723724 920.617859,382.508423 912.319763,402.067352 
	C907.972839,412.165680 907.724487,422.433533 911.025940,433.616974 
M898.363525,435.221954 
	C899.219971,428.472290 900.076416,421.722656 901.000854,414.079010 
	C900.700073,412.959564 900.399292,411.840149 900.254028,410.512909 
	C900.257385,410.302063 900.154907,410.179504 899.992371,409.362457 
	C893.814514,386.799164 868.491760,374.635651 845.922119,383.390411 
	C826.416382,390.956696 816.425171,412.722076 823.665649,432.633362 
	C827.148315,437.987396 830.630981,443.341461 834.450012,449.292755 
	C843.286804,457.167938 853.854065,460.017914 865.323975,458.891479 
	C880.411804,457.409729 891.860107,450.247162 898.363525,435.221954 
M1066.731323,400.362000 
	C1059.110352,385.163452 1044.010010,378.225494 1025.982666,381.639709 
	C1010.258179,384.617767 998.564392,398.200531 996.942261,415.923340 
	C997.511353,421.331573 998.080444,426.739777 998.742126,432.905212 
	C1008.095398,460.331940 1047.943726,469.223694 1067.485596,447.959686 
	C1063.987183,443.444031 1060.456299,438.886505 1056.940430,434.348175 
	C1040.508911,445.616638 1030.203369,444.599030 1018.140015,429.868744 
	C1018.067444,428.628296 1017.994873,427.387817 1017.895874,425.694763 
	C1035.500244,425.694763 1052.700806,425.694763 1070.243774,425.694763 
	C1070.559326,416.976654 1070.793457,408.748657 1066.731323,400.362000 
M557.085815,337.529541 
	C537.324829,337.489166 517.563782,337.409149 497.802856,337.427826 
	C489.845306,337.435364 481.888000,337.659302 473.038086,337.530884 
	C448.242523,337.546021 423.441803,337.246979 398.652588,337.650970 
	C362.874664,338.234039 333.051300,362.835144 328.096069,398.209015 
	C325.398712,417.464905 327.082520,437.334473 326.529053,457.841125 
	C326.629822,470.891724 326.730591,483.942352 326.557800,497.869690 
	C327.078827,508.122101 326.473022,518.586304 328.352264,528.583435 
	C332.435211,550.303284 345.415527,565.864136 365.369080,576.584412 
	C374.678741,579.803650 383.988403,583.022888 394.210175,586.557556 
	C394.210175,591.212402 394.210175,597.166870 394.064911,604.033020 
	C394.060059,613.192322 394.149628,622.353027 394.015564,631.510437 
	C393.932861,637.160278 395.499481,641.863525 401.077698,644.046326 
	C406.629364,646.218872 411.624481,645.270508 416.179230,640.947021 
	C435.484192,622.622253 454.917480,604.432129 474.407745,586.304504 
	C475.676849,585.124146 477.793243,584.375916 479.556488,584.292542 
	C485.698975,584.002136 491.859497,584.092651 498.935455,584.211182 
	C534.092041,584.250610 569.251282,584.567139 604.404236,584.228638 
	C626.555603,584.015381 645.016296,575.175659 659.322449,558.019287 
	C674.278931,540.082947 676.511597,518.879272 675.476440,495.882996 
	C675.486511,473.284790 675.493591,450.686584 675.509033,428.088379 
	C675.512085,423.686432 675.547180,419.284515 675.475159,414.546143 
	C675.475159,414.546143 675.213806,414.315063 675.446594,413.411743 
	C675.410767,410.954010 675.374939,408.496277 675.474609,405.272430 
	C674.992493,402.338257 674.682678,399.363373 674.001343,396.476227 
	C667.705200,369.798401 651.976440,351.387878 625.268982,341.681671 
	C603.177368,334.587921 580.475952,338.031250 557.085815,337.529541 
M757.125305,489.653870 
	C738.515686,498.207611 727.980957,512.637512 727.110535,533.131287 
	C726.190308,554.797241 738.355774,573.505310 757.487732,581.595032 
	C778.450562,590.458801 802.284729,586.006958 818.256775,569.918884 
	C813.771179,565.754089 809.296631,561.599670 804.896057,557.513855 
	C781.229675,570.355591 766.342896,569.535095 755.267029,554.950317 
	C745.419006,541.982361 746.447510,524.172607 757.887573,512.604858 
	C762.834412,507.602875 768.954407,504.607880 775.991150,503.952057 
	C786.558411,502.967163 795.525879,506.761658 803.163147,513.976990 
	C808.012512,509.717651 812.618774,505.671844 817.217102,501.632965 
	C804.417542,486.180328 780.481873,481.298828 757.125305,489.653870 
M875.855652,561.891846 
	C875.855652,569.196533 875.855652,576.501221 875.855652,583.921021 
	C882.682007,583.921021 889.074951,583.921021 895.612061,583.921021 
	C895.612061,568.088257 896.119568,552.577637 895.469421,537.115662 
	C894.818298,521.631226 881.593994,511.189178 866.136414,512.634766 
	C858.609314,513.338684 852.498413,516.611145 846.847107,523.285339 
	C846.847107,509.513000 846.847107,497.123779 846.847107,484.818176 
	C840.011169,484.818176 833.639465,484.818176 827.297729,484.818176 
	C827.297729,518.055908 827.297729,550.870361 827.297729,583.960632 
	C833.889954,583.960632 840.305054,583.960632 846.976868,583.960632 
	C846.976868,571.540894 846.722168,559.378052 847.127380,547.237122 
	C847.253967,543.444946 848.420105,539.246033 850.422974,536.057983 
	C853.687866,530.861267 859.045471,529.169006 865.216675,530.366333 
	C871.184509,531.524292 874.798584,535.018433 875.248047,541.043945 
	C875.741516,547.660034 875.678833,554.317505 875.855652,561.891846 
M1105.017212,517.510620 
	C1092.776245,524.407410 1087.524414,535.337280 1087.331909,548.922180 
	C1087.114990,564.226685 1095.697388,577.291138 1109.200317,582.833862 
	C1124.659546,589.179565 1145.464600,585.894958 1156.095459,575.334167 
	C1152.672607,571.291077 1149.241089,567.237854 1145.815796,563.191956 
	C1128.310181,574.524109 1111.097778,570.960144 1108.593262,555.084473 
	C1125.554810,555.084473 1142.449585,555.084473 1159.600830,555.084473 
	C1160.468994,539.469177 1157.515869,525.858276 1143.301392,517.629944 
	C1131.062256,510.544983 1118.292969,510.804382 1105.017212,517.510620 
M904.782288,561.156921 
	C903.499756,572.922546 909.882812,582.099670 921.379822,584.868958 
	C932.523804,587.553284 942.709290,585.750366 951.807007,577.532654 
	C951.938477,580.034912 952.039673,581.960510 952.151062,584.080444 
	C958.134399,584.080444 963.912048,584.080444 970.005371,584.080444 
	C970.005371,567.920349 970.293823,551.936035 969.879883,535.969910 
	C969.682007,528.337769 966.280762,521.684570 959.333557,517.771057 
	C955.918823,515.847473 952.076782,514.327209 948.241455,513.568909 
	C933.943176,510.742004 920.749084,513.659668 908.401001,521.780640 
	C911.236816,526.625244 913.786377,530.980896 916.339661,535.342896 
	C924.122864,530.704834 931.669983,527.401978 940.425354,528.850342 
	C948.268982,530.147888 951.000671,533.966064 949.962952,542.043762 
	C942.678772,542.043762 935.362610,541.652344 928.103821,542.130859 
	C915.609375,542.954407 906.751343,550.190430 904.782288,561.156921 
M1075.055908,568.882080 
	C1067.568604,569.020752 1063.926147,567.094116 1063.682251,561.495117 
	C1063.229736,551.104858 1063.552612,540.680908 1063.552612,529.785156 
	C1069.477417,529.785156 1075.210938,529.785156 1080.842285,529.785156 
	C1080.842285,524.241028 1080.842285,519.194031 1080.842285,513.785645 
	C1074.765381,513.785645 1069.022095,513.785645 1062.978760,513.785645 
	C1062.978760,507.795624 1062.978760,502.177704 1062.978760,496.347595 
	C1056.405518,496.347595 1050.143799,496.347595 1043.320557,496.347595 
	C1043.320557,502.231415 1043.320557,507.955475 1043.320557,514.051819 
	C1039.511353,514.051819 1036.256714,514.051819 1032.998291,514.051819 
	C1032.998291,519.538391 1032.998291,524.623657 1032.998291,530.179199 
	C1036.546387,530.179199 1039.790771,530.179199 1043.316040,530.179199 
	C1043.316040,540.637573 1043.218384,550.619324 1043.336304,560.598511 
	C1043.579712,581.215515 1065.440308,593.143738 1083.310425,582.471558 
	C1082.728394,577.593445 1082.146362,572.715332 1081.545410,567.678711 
	C1079.400513,568.100586 1077.626587,568.449524 1075.055908,568.882080 
M1008.867249,532.627930 
	C1009.824402,531.737183 1010.741150,530.134094 1011.745667,530.076965 
	C1016.517395,529.805725 1021.313171,529.955688 1026.320068,529.955688 
	C1026.320068,524.442566 1026.320068,519.369385 1026.320068,513.899170 
	C1020.448364,513.899170 1014.847900,513.899170 1008.640686,513.899170 
	C1008.640686,507.802826 1008.640686,502.087585 1008.640686,496.554504 
	C1001.760132,496.554504 995.510071,496.554504 988.898804,496.554504 
	C988.898804,502.529541 988.898804,508.129700 988.898804,514.112549 
	C984.951294,514.112549 981.365112,514.112549 977.758789,514.112549 
	C977.758789,519.586487 977.758789,524.653137 977.758789,530.197632 
	C981.701721,530.197632 985.282593,530.197632 989.037109,530.197632 
	C989.037109,541.333313 988.850952,551.985962 989.101135,562.628357 
	C989.274475,570.000793 991.147583,577.145508 997.836670,581.254639 
	C1007.692993,587.309448 1018.171753,587.190491 1028.790405,582.871094 
	C1028.480835,580.063477 1028.211426,577.592957 1027.935181,575.123230 
	C1027.644287,572.521484 1027.346924,569.920471 1027.028442,567.107544 
	C1025.383301,567.542725 1024.160156,567.902466 1022.919983,568.188538 
	C1012.732727,570.538757 1008.902649,567.492798 1008.908081,557.098328 
	C1008.912109,549.268982 1008.882263,541.439575 1008.867249,532.627930 
M1170.028687,573.466553 
	C1170.028687,576.942200 1170.028687,580.417786 1170.028687,584.102783 
	C1176.735352,584.102783 1183.185669,584.102783 1189.963013,584.102783 
	C1189.963013,581.887817 1189.948364,579.912354 1189.965576,577.937195 
	C1190.053467,567.792725 1189.743896,557.623779 1190.354370,547.510498 
	C1190.992432,536.939392 1199.014648,530.895874 1209.546631,532.195984 
	C1211.000977,532.375488 1212.436401,532.708862 1214.164673,533.022522 
	C1214.922119,528.803772 1215.629761,524.754333 1216.379150,520.712585 
	C1217.577637,514.250122 1216.401489,512.752197 1209.645386,512.889404 
	C1200.868286,513.067627 1194.360840,517.418030 1188.912720,525.698669 
	C1188.912720,521.099976 1188.912720,517.741394 1188.912720,514.322388 
	C1182.351196,514.322388 1176.299316,514.322388 1170.027466,514.322388 
	C1170.027466,533.917297 1170.027466,553.197510 1170.028687,573.466553 
z"/>
<path fill="#FAFAFA" opacity="1.000000" stroke="none" 
	d="
M757.464050,489.473480 
	C780.481873,481.298828 804.417542,486.180328 817.217102,501.632965 
	C812.618774,505.671844 808.012512,509.717651 803.163147,513.976990 
	C795.525879,506.761658 786.558411,502.967163 775.991150,503.952057 
	C768.954407,504.607880 762.834412,507.602875 757.887573,512.604858 
	C746.447510,524.172607 745.419006,541.982361 755.267029,554.950317 
	C766.342896,569.535095 781.229675,570.355591 804.896057,557.513855 
	C809.296631,561.599670 813.771179,565.754089 818.256775,569.918884 
	C802.284729,586.006958 778.450562,590.458801 757.487732,581.595032 
	C738.355774,573.505310 726.190308,554.797241 727.110535,533.131287 
	C727.980957,512.637512 738.515686,498.207611 757.464050,489.473480 
z"/>
<path fill="#FAFAFA" opacity="1.000000" stroke="none" 
	d="
M875.857056,561.424438 
	C875.678833,554.317505 875.741516,547.660034 875.248047,541.043945 
	C874.798584,535.018433 871.184509,531.524292 865.216675,530.366333 
	C859.045471,529.169006 853.687866,530.861267 850.422974,536.057983 
	C848.420105,539.246033 847.253967,543.444946 847.127380,547.237122 
	C846.722168,559.378052 846.976868,571.540894 846.976868,583.960632 
	C840.305054,583.960632 833.889954,583.960632 827.297729,583.960632 
	C827.297729,550.870361 827.297729,518.055908 827.297729,484.818176 
	C833.639465,484.818176 840.011169,484.818176 846.847107,484.818176 
	C846.847107,497.123779 846.847107,509.513000 846.847107,523.285339 
	C852.498413,516.611145 858.609314,513.338684 866.136414,512.634766 
	C881.593994,511.189178 894.818298,521.631226 895.469421,537.115662 
	C896.119568,552.577637 895.612061,568.088257 895.612061,583.921021 
	C889.074951,583.921021 882.682007,583.921021 875.855652,583.921021 
	C875.855652,576.501221 875.855652,569.196533 875.857056,561.424438 
z"/>
<path fill="#C26FF8" opacity="1.000000" stroke="none" 
	d="
M326.790344,456.927307 
	C327.082520,437.334473 325.398712,417.464905 328.096069,398.209015 
	C333.051300,362.835144 362.874664,338.234039 398.652588,337.650970 
	C423.441803,337.246979 448.242523,337.546021 473.284363,337.952942 
	C470.589172,338.584167 467.645935,338.770905 464.707001,339.010620 
	C462.909180,339.157288 460.696594,338.781952 459.401001,339.687012 
	C455.101685,342.690399 451.040771,346.060425 447.064178,349.493439 
	C443.058258,352.951813 438.895142,355.251892 433.261658,355.108551 
	C425.853790,354.920044 418.425293,355.541809 410.542419,355.887177 
	C407.914154,355.965271 405.748322,356.012756 403.584198,355.971252 
	C367.998718,355.288849 344.345703,384.964172 345.791046,414.033081 
	C346.501038,428.312378 345.784637,442.662628 345.381836,456.856445 
	C344.721222,456.195892 344.204559,455.695862 344.093109,455.117737 
	C343.027435,449.589447 339.465607,447.536163 334.644470,450.313080 
	C331.725067,451.994629 329.388672,454.688324 326.790344,456.927307 
z"/>
<path fill="#FAFAFA" opacity="1.000000" stroke="none" 
	d="
M1105.340820,517.335144 
	C1118.292969,510.804382 1131.062256,510.544983 1143.301392,517.629944 
	C1157.515869,525.858276 1160.468994,539.469177 1159.600830,555.084473 
	C1142.449585,555.084473 1125.554810,555.084473 1108.593262,555.084473 
	C1111.097778,570.960144 1128.310181,574.524109 1145.815796,563.191956 
	C1149.241089,567.237854 1152.672607,571.291077 1156.095459,575.334167 
	C1145.464600,585.894958 1124.659546,589.179565 1109.200317,582.833862 
	C1095.697388,577.291138 1087.114990,564.226685 1087.331909,548.922180 
	C1087.524414,535.337280 1092.776245,524.407410 1105.340820,517.335144 
M1120.518555,542.110413 
	C1126.970093,542.110413 1133.421509,542.110413 1139.904541,542.110413 
	C1138.905029,533.242676 1132.211304,527.573181 1123.418335,527.834045 
	C1115.196045,528.077942 1109.041504,533.899658 1108.562012,542.107056 
	C1112.225830,542.107056 1115.877686,542.107056 1120.518555,542.110413 
z"/>
<path fill="#2FD4F8" opacity="1.000000" stroke="none" 
	d="
M675.215515,496.744537 
	C676.511597,518.879272 674.278931,540.082947 659.322449,558.019287 
	C645.016296,575.175659 626.555603,584.015381 604.404236,584.228638 
	C569.251282,584.567139 534.092041,584.250610 498.775238,583.848083 
	C502.498413,583.023987 506.776764,583.432678 510.169647,581.891724 
	C514.887207,579.749207 518.803955,575.912598 523.327515,573.249390 
	C526.320068,571.487610 527.075195,569.449646 526.380371,566.331055 
	C551.627625,566.208740 576.436829,566.171997 601.245972,566.092468 
	C617.615845,566.040039 631.343140,559.783264 642.510681,547.976318 
	C650.447266,539.585327 654.252014,529.204834 656.388062,518.059448 
	C658.205261,518.738281 659.710083,519.914978 661.135925,519.825989 
	C666.549866,519.488159 673.895020,511.018921 673.974731,505.424316 
	C674.019348,502.298340 674.072083,499.172485 674.121094,496.046570 
	C674.397888,496.139893 674.690369,496.203613 674.944763,496.339050 
	C675.071106,496.406342 675.127441,496.605225 675.215515,496.744537 
z"/>
<path fill="#FAFAFA" opacity="1.000000" stroke="none" 
	d="
M904.855469,560.750793 
	C906.751343,550.190430 915.609375,542.954407 928.103821,542.130859 
	C935.362610,541.652344 942.678772,542.043762 949.962952,542.043762 
	C951.000671,533.966064 948.268982,530.147888 940.425354,528.850342 
	C931.669983,527.401978 924.122864,530.704834 916.339661,535.342896 
	C913.786377,530.980896 911.236816,526.625244 908.401001,521.780640 
	C920.749084,513.659668 933.943176,510.742004 948.241455,513.568909 
	C952.076782,514.327209 955.918823,515.847473 959.333557,517.771057 
	C966.280762,521.684570 969.682007,528.337769 969.879883,535.969910 
	C970.293823,551.936035 970.005371,567.920349 970.005371,584.080444 
	C963.912048,584.080444 958.134399,584.080444 952.151062,584.080444 
	C952.039673,581.960510 951.938477,580.034912 951.807007,577.532654 
	C942.709290,585.750366 932.523804,587.553284 921.379822,584.868958 
	C909.882812,582.099670 903.499756,572.922546 904.855469,560.750793 
M936.307739,572.108093 
	C946.953064,570.499756 951.970825,563.919495 949.731445,554.119995 
	C946.662903,554.119995 943.524109,554.117859 940.385254,554.120911 
	C938.889099,554.122314 937.381226,554.015991 935.898926,554.162659 
	C931.522034,554.595764 927.151733,555.374573 924.955933,559.797241 
	C921.725525,566.303650 926.386108,571.683960 936.307739,572.108093 
z"/>
<path fill="#51ABFA" opacity="1.000000" stroke="none" 
	d="
M525.942322,566.398376 
	C527.075195,569.449646 526.320068,571.487610 523.327515,573.249390 
	C518.803955,575.912598 514.887207,579.749207 510.169647,581.891724 
	C506.776764,583.432678 502.498413,583.023987 498.314087,583.761719 
	C491.859497,584.092651 485.698975,584.002136 479.556488,584.292542 
	C477.793243,584.375916 475.676849,585.124146 474.407745,586.304504 
	C454.917480,604.432129 435.484192,622.622253 416.179230,640.947021 
	C411.624481,645.270508 406.629364,646.218872 401.077698,644.046326 
	C395.499481,641.863525 393.932861,637.160278 394.015564,631.510437 
	C394.149628,622.353027 394.060059,613.192322 394.345612,603.846802 
	C395.124359,605.965942 396.412476,608.522583 398.724060,606.299438 
	C403.589417,601.620239 413.373932,601.439941 412.699982,591.534546 
	C412.689178,591.375549 413.207977,591.180481 413.535278,591.467285 
	C413.568024,600.074524 413.545105,608.216614 413.552551,616.505371 
	C414.065033,616.545044 414.547150,616.438110 415.211487,616.037659 
	C431.787323,600.426208 448.114319,585.035583 464.659851,569.883606 
	C466.700531,568.014771 469.892639,566.430908 472.575165,566.392639 
	C490.360565,566.138977 508.152496,566.343201 525.942322,566.398376 
z"/>
<path fill="#FAFAFA" opacity="1.000000" stroke="none" 
	d="
M1075.454346,568.840271 
	C1077.626587,568.449524 1079.400513,568.100586 1081.545410,567.678711 
	C1082.146362,572.715332 1082.728394,577.593445 1083.313477,582.472412 
	C1065.440308,593.143738 1043.579712,581.215515 1043.336304,560.598511 
	C1043.218384,550.619324 1043.316040,540.637573 1043.316040,530.179199 
	C1039.790771,530.179199 1036.546387,530.179199 1032.998291,530.179199 
	C1032.998291,524.623657 1032.998291,519.538391 1032.998291,514.051819 
	C1036.256714,514.051819 1039.511353,514.051819 1043.320557,514.051819 
	C1043.320557,507.955475 1043.320557,502.231415 1043.320557,496.347595 
	C1050.143799,496.347595 1056.405518,496.347595 1062.978760,496.347595 
	C1062.978760,502.177704 1062.978760,507.795624 1062.978760,513.785645 
	C1069.022095,513.785645 1074.765381,513.785645 1080.842285,513.785645 
	C1080.842285,519.194031 1080.842285,524.241028 1080.842285,529.785156 
	C1075.210938,529.785156 1069.477417,529.785156 1063.552612,529.785156 
	C1063.552612,540.680908 1063.229736,551.104858 1063.682251,561.495117 
	C1063.926147,567.094116 1067.568604,569.020752 1075.454346,568.840271 
z"/>
<path fill="#FAFAFA" opacity="1.000000" stroke="none" 
	d="
M1008.867432,533.119080 
	C1008.882263,541.439575 1008.912109,549.268982 1008.908081,557.098328 
	C1008.902649,567.492798 1012.732727,570.538757 1022.919983,568.188538 
	C1024.160156,567.902466 1025.383301,567.542725 1027.028442,567.107544 
	C1027.346924,569.920471 1027.644287,572.521484 1027.935181,575.123230 
	C1028.211426,577.592957 1028.480835,580.063477 1028.790405,582.871094 
	C1018.171753,587.190491 1007.692993,587.309448 997.836670,581.254639 
	C991.147583,577.145508 989.274475,570.000793 989.101135,562.628357 
	C988.850952,551.985962 989.037109,541.333313 989.037109,530.197632 
	C985.282593,530.197632 981.701721,530.197632 977.758789,530.197632 
	C977.758789,524.653137 977.758789,519.586487 977.758789,514.112549 
	C981.365112,514.112549 984.951294,514.112549 988.898804,514.112549 
	C988.898804,508.129700 988.898804,502.529541 988.898804,496.554504 
	C995.510071,496.554504 1001.760132,496.554504 1008.640686,496.554504 
	C1008.640686,502.087585 1008.640686,507.802826 1008.640686,513.899170 
	C1014.847900,513.899170 1020.448364,513.899170 1026.320068,513.899170 
	C1026.320068,519.369385 1026.320068,524.442566 1026.320068,529.955688 
	C1021.313171,529.955688 1016.517395,529.805725 1011.745667,530.076965 
	C1010.741150,530.134094 1009.824402,531.737183 1008.867432,533.119080 
z"/>
<path fill="#E674F8" opacity="1.000000" stroke="none" 
	d="
M727.740479,413.947815 
	C727.595520,413.516052 727.450562,413.084290 727.523254,411.955658 
	C727.757507,407.633148 727.774048,404.007568 727.790649,400.381958 
	C729.200134,383.484955 737.812378,371.068237 752.049805,362.524994 
	C772.934570,349.993011 800.378845,354.335724 816.063354,372.736053 
	C811.511963,376.926270 806.939697,381.135742 802.114563,385.578064 
	C793.054077,376.537323 782.570679,372.566559 770.215576,376.336639 
	C759.604004,379.574615 752.916931,387.107239 748.735596,397.976440 
	C748.258240,400.085175 748.150879,401.572113 748.043579,403.059082 
	C748.043579,403.059082 747.995483,403.027924 747.872314,403.109436 
	C747.696411,403.293457 747.573242,403.432129 747.603882,403.491760 
	C747.703552,403.685760 747.859436,403.850800 747.993713,404.027008 
	C747.957886,405.523773 747.922058,407.020569 747.341492,408.822723 
	C738.812378,407.633728 735.746338,414.371033 731.028748,418.998962 
	C729.797852,417.108154 728.769165,415.527985 727.740479,413.947815 
z"/>
<path fill="#7D8FF4" opacity="1.000000" stroke="none" 
	d="
M626.035095,341.985229 
	C651.976440,351.387878 667.705200,369.798401 674.001343,396.476227 
	C674.682678,399.363373 674.992493,402.338257 675.120728,405.807373 
	C673.236938,411.216675 663.017090,418.632843 657.444092,418.896301 
	C657.023010,424.244965 656.601624,429.596802 656.110352,434.490753 
	C656.036621,426.538971 656.071167,419.044891 656.022278,411.551300 
	C655.818970,380.425079 631.102478,355.998688 599.961975,356.016968 
	C579.316040,356.029083 558.669922,355.906982 538.362122,355.612488 
	C550.916260,354.078033 563.226562,356.017609 575.489014,352.250549 
	C584.953552,349.343018 595.374817,349.705414 605.230774,347.864624 
	C612.285461,346.547028 619.108643,343.989532 626.035095,341.985229 
z"/>
<path fill="#C26FF8" opacity="1.000000" stroke="none" 
	d="
M823.634888,431.942261 
	C816.425171,412.722076 826.416382,390.956696 845.922119,383.390411 
	C868.491760,374.635651 893.814514,386.799164 899.982300,409.853180 
	C899.972229,410.343903 900.098450,410.720734 900.098511,410.720734 
	C900.399292,411.840149 900.700073,412.959564 900.573975,414.526215 
	C893.267334,412.180847 888.779785,418.652954 882.815247,419.703369 
	C882.237305,418.309418 881.748718,417.130890 881.156738,415.596497 
	C877.547791,404.668488 869.220825,398.383331 859.930237,399.296997 
	C849.683716,400.304718 842.358521,407.773865 841.362976,418.625336 
	C841.111511,421.366669 841.796265,424.193909 841.667725,427.037689 
	C835.401428,428.709900 829.518127,430.326080 823.634888,431.942261 
z"/>
<path fill="#51ABFA" opacity="1.000000" stroke="none" 
	d="
M656.180237,434.948669 
	C656.601624,429.596802 657.023010,424.244965 657.444092,418.896301 
	C663.017090,418.632843 673.236938,411.216675 675.052979,406.190430 
	C675.374939,408.496277 675.410767,410.954010 675.337219,413.951996 
	C675.278625,414.674805 675.391846,414.804901 675.567444,414.882568 
	C675.547180,419.284515 675.512085,423.686432 675.509033,428.088379 
	C675.493591,450.686584 675.486511,473.284790 675.345947,496.313782 
	C675.127441,496.605225 675.071106,496.406342 674.944763,496.339050 
	C674.690369,496.203613 674.397888,496.139893 674.121094,496.046570 
	C674.072083,499.172485 674.019348,502.298340 673.974731,505.424316 
	C673.895020,511.018921 666.549866,519.488159 661.135925,519.825989 
	C659.710083,519.914978 658.205261,518.738281 656.334351,517.596436 
	C656.014709,489.682922 656.097473,462.315796 656.180237,434.948669 
z"/>
<path fill="#FAFAFA" opacity="1.000000" stroke="none" 
	d="
M1170.028076,572.972168 
	C1170.027466,553.197510 1170.027466,533.917297 1170.027466,514.322388 
	C1176.299316,514.322388 1182.351196,514.322388 1188.912720,514.322388 
	C1188.912720,517.741394 1188.912720,521.099976 1188.912720,525.698669 
	C1194.360840,517.418030 1200.868286,513.067627 1209.645386,512.889404 
	C1216.401489,512.752197 1217.577637,514.250122 1216.379150,520.712585 
	C1215.629761,524.754333 1214.922119,528.803772 1214.164673,533.022522 
	C1212.436401,532.708862 1211.000977,532.375488 1209.546631,532.195984 
	C1199.014648,530.895874 1190.992432,536.939392 1190.354370,547.510498 
	C1189.743896,557.623779 1190.053467,567.792725 1189.965576,577.937195 
	C1189.948364,579.912354 1189.963013,581.887817 1189.963013,584.102783 
	C1183.185669,584.102783 1176.735352,584.102783 1170.028687,584.102783 
	C1170.028687,580.417786 1170.028687,576.942200 1170.028076,572.972168 
z"/>
<path fill="#9982FA" opacity="1.000000" stroke="none" 
	d="
M364.926544,576.051575 
	C345.415527,565.864136 332.435211,550.303284 328.352264,528.583435 
	C326.473022,518.586304 327.078827,508.122101 326.949768,497.272705 
	C330.936249,492.892883 334.350922,488.969635 340.302612,488.910095 
	C342.108826,488.892059 343.903046,487.675385 345.788544,487.468231 
	C345.883362,496.401581 345.703949,504.879944 345.954254,513.345581 
	C346.206543,521.878479 347.931580,530.102539 352.091583,537.729248 
	C359.221985,550.801758 370.359802,558.922302 383.844360,564.331543 
	C381.898651,565.768799 380.146515,566.946594 378.341522,568.036804 
	C373.882721,570.729736 369.399780,573.382568 364.926544,576.051575 
z"/>
<path fill="#C26FF8" opacity="1.000000" stroke="none" 
	d="
M986.589600,354.857605 
	C986.601379,367.258423 986.613098,379.659210 986.226379,392.657593 
	C983.706177,394.499481 981.682922,395.979523 979.433838,396.919250 
	C977.351746,397.789215 974.811646,397.671539 972.852905,398.707092 
	C967.719727,401.420929 962.527649,402.788025 956.588013,401.077026 
	C956.370239,401.075867 955.989075,400.864471 955.796875,400.656769 
	C955.070435,400.301483 954.536072,400.153931 953.596802,399.969421 
	C949.352966,400.021881 945.514099,400.111267 941.291565,400.176514 
	C940.335327,400.568512 939.762817,400.984589 939.198914,401.342712 
	C939.207520,401.284790 939.301575,401.354614 938.947266,401.284393 
	C937.821472,401.943237 937.050049,402.672302 936.279053,403.419434 
	C936.279419,403.437531 936.288330,403.472748 935.861328,403.353485 
	C927.786438,404.369995 920.138611,405.505768 912.133118,406.694641 
	C912.454285,404.465668 912.664246,403.008759 912.874207,401.551880 
	C920.617859,382.508423 948.255554,372.723724 966.829895,389.029633 
	C966.829895,376.566071 966.829895,364.559937 966.829895,352.075897 
	C973.313660,352.075897 979.270386,352.075897 985.637329,352.496094 
	C986.228271,353.563385 986.408936,354.210510 986.589600,354.857605 
z"/>
<path fill="#9982FA" opacity="1.000000" stroke="none" 
	d="
M625.652039,341.833466 
	C619.108643,343.989532 612.285461,346.547028 605.230774,347.864624 
	C595.374817,349.705414 584.953552,349.343018 575.489014,352.250549 
	C563.226562,356.017609 550.916260,354.078033 537.895386,355.686157 
	C518.394897,355.935791 499.699371,355.879272 481.345398,355.592285 
	C487.303558,355.239716 492.924225,355.204254 498.534424,354.943970 
	C500.266693,354.863556 502.087341,354.427368 503.665436,353.709747 
	C508.306122,351.599457 512.718445,348.936035 517.460022,347.112762 
	C522.216370,345.283844 527.974487,345.269043 532.018250,342.557343 
	C538.619934,338.130280 545.512390,339.289764 552.464966,338.950745 
	C554.320435,338.860260 556.147644,338.191406 557.987854,337.788116 
	C580.475952,338.031250 603.177368,334.587921 625.652039,341.833466 
z"/>
<path fill="#AC79F9" opacity="1.000000" stroke="none" 
	d="
M557.536865,337.658813 
	C556.147644,338.191406 554.320435,338.860260 552.464966,338.950745 
	C545.512390,339.289764 538.619934,338.130280 532.018250,342.557343 
	C527.974487,345.269043 522.216370,345.283844 517.460022,347.112762 
	C512.718445,348.936035 508.306122,351.599457 503.665436,353.709747 
	C502.087341,354.427368 500.266693,354.863556 498.534424,354.943970 
	C492.924225,355.204254 487.303558,355.239716 480.881531,355.668701 
	C457.052612,355.922119 434.029114,355.868622 411.005646,355.815125 
	C418.425293,355.541809 425.853790,354.920044 433.261658,355.108551 
	C438.895142,355.251892 443.058258,352.951813 447.064178,349.493439 
	C451.040771,346.060425 455.101685,342.690399 459.401001,339.687012 
	C460.696594,338.781952 462.909180,339.157288 464.707001,339.010620 
	C467.645935,338.770905 470.589172,338.584167 473.730591,338.079895 
	C481.888000,337.659302 489.845306,337.435364 497.802856,337.427826 
	C517.563782,337.409149 537.324829,337.489166 557.536865,337.658813 
z"/>
<path fill="#9982FA" opacity="1.000000" stroke="none" 
	d="
M998.649536,432.148010 
	C998.080444,426.739777 997.511353,421.331573 997.382019,415.627075 
	C999.855225,414.942261 1001.902710,414.614899 1003.919250,414.152710 
	C1008.327454,413.142334 1012.720032,412.063446 1017.263428,411.357300 
	C1022.798279,411.993286 1028.185669,412.401459 1033.580078,412.543457 
	C1039.127686,412.689545 1044.682129,412.575867 1051.327271,412.575867 
	C1049.842896,408.839874 1048.774414,406.150452 1048.133057,403.344391 
	C1054.648071,402.503174 1060.735840,401.778564 1066.823608,401.053955 
	C1070.793457,408.748657 1070.559326,416.976654 1070.243774,425.694763 
	C1052.700806,425.694763 1035.500244,425.694763 1017.895874,425.694763 
	C1017.994873,427.387817 1018.067444,428.628296 1017.840210,430.624451 
	C1011.243408,431.636108 1004.946411,431.892059 998.649536,432.148010 
z"/>
<path fill="#AC79F9" opacity="1.000000" stroke="none" 
	d="
M1017.118958,411.012573 
	C1012.720032,412.063446 1008.327454,413.142334 1003.919250,414.152710 
	C1001.902710,414.614899 999.855225,414.942261 997.525208,415.184631 
	C998.564392,398.200531 1010.258179,384.617767 1025.982666,381.639709 
	C1044.010010,378.225494 1059.110352,385.163452 1066.777466,400.707977 
	C1060.735840,401.778564 1054.648071,402.503174 1048.139404,403.321167 
	C1047.718384,403.414581 1047.744629,403.374481 1047.680542,403.090210 
	C1047.301758,402.601074 1046.987061,402.396179 1046.756470,402.169922 
	C1046.840576,402.148590 1046.848145,402.321991 1046.713135,402.029968 
	C1046.209229,401.537537 1045.840332,401.337067 1045.155762,401.027954 
	C1032.689453,393.761566 1022.691406,397.401855 1017.118958,411.012573 
z"/>
<path fill="#7D8FF4" opacity="1.000000" stroke="none" 
	d="
M998.695801,432.526611 
	C1004.946411,431.892059 1011.243408,431.636108 1017.846680,431.075195 
	C1030.203369,444.599030 1040.508911,445.616638 1056.940430,434.348175 
	C1060.456299,438.886505 1063.987183,443.444031 1067.485596,447.959686 
	C1047.943726,469.223694 1008.095398,460.331940 998.695801,432.526611 
z"/>
<path fill="#7D8FF4" opacity="1.000000" stroke="none" 
	d="
M986.536194,436.958069 
	C986.536194,443.743866 986.536194,450.529663 986.536194,457.768250 
	C980.229736,457.768250 974.037659,457.768250 967.535583,457.768250 
	C967.420166,455.298981 967.305908,452.854767 967.153076,449.585968 
	C960.135010,456.723450 952.023804,459.641937 942.649231,458.985382 
	C933.298340,458.330475 925.285889,454.901855 919.261475,447.219482 
	C921.241943,445.678589 922.960449,444.410797 924.867310,443.570007 
	C929.187500,441.665100 933.600464,439.970581 938.325989,438.291992 
	C944.122986,441.606934 949.811829,442.025299 956.071411,440.022461 
	C961.095764,443.317505 965.513123,443.350281 970.840942,440.856049 
	C975.631165,438.613495 981.271057,438.186127 986.536194,436.958069 
z"/>
<path fill="#7D8FF4" opacity="1.000000" stroke="none" 
	d="
M365.147827,576.317993 
	C369.399780,573.382568 373.882721,570.729736 378.341522,568.036804 
	C380.146515,566.946594 381.898651,565.768799 384.248566,564.326050 
	C390.702789,564.748657 396.566040,565.817505 402.468262,566.116150 
	C409.709595,566.482483 413.514862,569.899170 413.550934,577.094299 
	C413.574219,581.730042 413.506531,586.366272 413.479645,591.002258 
	C413.207977,591.180481 412.689178,591.375549 412.699982,591.534546 
	C413.373932,601.439941 403.589417,601.620239 398.724060,606.299438 
	C396.412476,608.522583 395.124359,605.965942 394.418243,603.390991 
	C394.210175,597.166870 394.210175,591.212402 394.210175,586.557556 
	C383.988403,583.022888 374.678741,579.803650 365.147827,576.317993 
z"/>
<path fill="#9982FA" opacity="1.000000" stroke="none" 
	d="
M775.994385,440.092651 
	C784.519287,440.774139 792.093323,438.391479 798.570007,432.823792 
	C800.846130,430.867096 802.508301,430.573456 804.795837,432.978943 
	C808.439331,436.810455 812.468140,440.275574 816.300598,443.864349 
	C805.963562,458.276062 773.873413,465.707275 751.447632,451.086121 
	C753.291138,449.466034 754.935486,448.027252 756.849304,447.264648 
	C763.178589,444.742523 769.605164,442.464417 775.994385,440.092651 
z"/>
<path fill="#9982FA" opacity="1.000000" stroke="none" 
	d="
M986.623779,436.501160 
	C981.271057,438.186127 975.631165,438.613495 970.840942,440.856049 
	C965.513123,443.350281 961.095764,443.317505 956.275696,439.738007 
	C958.866943,436.805939 962.363525,434.771027 964.198730,431.732635 
	C970.555054,421.209106 967.389832,409.055023 956.805725,401.078217 
	C962.527649,402.788025 967.719727,401.420929 972.852905,398.707092 
	C974.811646,397.671539 977.351746,397.789215 979.433838,396.919250 
	C981.682922,395.979523 983.706177,394.499481 986.119629,393.112122 
	C986.511353,407.327454 986.611389,421.685852 986.623779,436.501160 
z"/>
<path fill="#9982FA" opacity="1.000000" stroke="none" 
	d="
M897.932861,435.777344 
	C891.860107,450.247162 880.411804,457.409729 865.323975,458.891479 
	C853.854065,460.017914 843.286804,457.167938 834.529663,448.901611 
	C840.740051,445.333527 846.870728,442.156616 853.384644,439.030151 
	C861.416992,442.222290 868.344543,440.538086 875.253113,436.000183 
	C880.546326,437.492798 885.150085,437.309448 889.997986,435.237885 
	C892.169556,434.309875 895.259583,435.531311 897.932861,435.777344 
z"/>
<path fill="#AC79F9" opacity="1.000000" stroke="none" 
	d="
M345.702759,487.007690 
	C343.903046,487.675385 342.108826,488.892059 340.302612,488.910095 
	C334.350922,488.969635 330.936249,492.892883 327.086548,496.834351 
	C326.730591,483.942352 326.629822,470.891724 326.659698,457.384216 
	C329.388672,454.688324 331.725067,451.994629 334.644470,450.313080 
	C339.465607,447.536163 343.027435,449.589447 344.093109,455.117737 
	C344.204559,455.695862 344.721222,456.195892 345.467133,457.320068 
	C345.823853,467.607880 345.763306,477.307800 345.702759,487.007690 
z"/>
<path fill="#C26FF8" opacity="1.000000" stroke="none" 
	d="
M727.636963,414.323730 
	C728.769165,415.527985 729.797852,417.108154 731.028748,418.998962 
	C735.746338,414.371033 738.812378,407.633728 747.261963,409.187134 
	C749.103638,416.153992 750.396301,423.096619 755.491882,428.885498 
	C749.024292,431.866150 742.737671,434.346649 736.450989,436.827148 
	C736.450989,436.827179 736.245544,436.695496 736.312256,436.321014 
	C736.088928,435.828979 735.798767,435.711395 735.508667,435.593842 
	C735.508667,435.593842 735.496582,435.525574 735.502869,435.198853 
	C735.226196,434.634430 734.943298,434.396698 734.660339,434.158966 
	C732.284729,427.672546 729.909119,421.186127 727.636963,414.323730 
z"/>
<path fill="#AC79F9" opacity="1.000000" stroke="none" 
	d="
M912.596985,401.809631 
	C912.664246,403.008759 912.454285,404.465668 912.133118,406.694641 
	C920.138611,405.505768 927.786438,404.369995 935.682251,403.628357 
	C929.594421,409.280029 929.099915,416.554199 928.680664,423.828064 
	C921.355103,422.099152 913.800049,426.110321 911.046509,432.849060 
	C907.724487,422.433533 907.972839,412.165680 912.596985,401.809631 
z"/>
<path fill="#AC79F9" opacity="1.000000" stroke="none" 
	d="
M898.148193,435.499634 
	C895.259583,435.531311 892.169556,434.309875 889.997986,435.237885 
	C885.150085,437.309448 880.546326,437.492798 875.398193,435.689514 
	C880.537231,429.924103 881.792297,423.221466 881.260132,415.952393 
	C881.748718,417.130890 882.237305,418.309418 882.815247,419.703369 
	C888.779785,418.652954 893.267334,412.180847 900.539917,414.973206 
	C900.076416,421.722656 899.219971,428.472290 898.148193,435.499634 
z"/>
<path fill="#AC79F9" opacity="1.000000" stroke="none" 
	d="
M736.587646,437.110596 
	C742.737671,434.346649 749.024292,431.866150 755.620178,429.211487 
	C757.639709,430.550598 759.362305,432.050232 761.057922,433.579803 
	C765.119446,437.243713 769.822937,439.432068 775.652954,439.966431 
	C769.605164,442.464417 763.178589,444.742523 756.849304,447.264648 
	C754.935486,448.027252 753.291138,449.466034 751.253784,450.804688 
	C746.230835,446.474213 741.477539,441.934143 736.587646,437.110596 
z"/>
<path fill="#9982FA" opacity="1.000000" stroke="none" 
	d="
M911.036255,433.233032 
	C913.800049,426.110321 921.355103,422.099152 928.880127,424.131531 
	C932.284790,429.120483 935.130249,433.655487 937.975708,438.190491 
	C933.600464,439.970581 929.187500,441.665100 924.867310,443.570007 
	C922.960449,444.410797 921.241943,445.678589 919.116211,446.913452 
	C916.205017,442.588593 913.615479,438.102783 911.036255,433.233032 
z"/>
<path fill="#AC79F9" opacity="1.000000" stroke="none" 
	d="
M853.001404,438.979675 
	C846.870728,442.156616 840.740051,445.333527 834.361450,448.602966 
	C830.630981,443.341461 827.148315,437.987396 823.650269,432.287811 
	C829.518127,430.326080 835.401428,428.709900 841.922485,427.265625 
	C846.040649,431.284943 849.521057,435.132294 853.001404,438.979675 
z"/>
<path fill="#C26FF8" opacity="1.000000" stroke="none" 
	d="
M727.516968,400.748230 
	C727.774048,404.007568 727.757507,407.633148 727.536499,411.609711 
	C727.302490,408.345276 727.272888,404.729889 727.516968,400.748230 
z"/>
<path fill="#C26FF8" opacity="1.000000" stroke="none" 
	d="
M748.155334,402.711334 
	C748.150879,401.572113 748.258240,400.085175 748.602356,398.312866 
	C748.648438,399.472870 748.457764,400.918213 748.155334,402.711334 
z"/>
<path fill="#9982FA" opacity="1.000000" stroke="none" 
	d="
M986.684570,354.592468 
	C986.408936,354.210510 986.228271,353.563385 986.088623,352.659119 
	C986.346375,353.043732 986.562927,353.685547 986.684570,354.592468 
z"/>
<path fill="#AC79F9" opacity="1.000000" stroke="none" 
	d="
M735.574707,435.774567 
	C735.798767,435.711395 736.088928,435.828979 736.296143,436.200073 
	C735.967590,436.350464 735.776733,436.184357 735.574707,435.774567 
z"/>
<path fill="#AC79F9" opacity="1.000000" stroke="none" 
	d="
M734.713196,434.422363 
	C734.943298,434.396698 735.226196,434.634430 735.497559,435.164581 
	C735.245972,435.199921 735.006042,434.942841 734.713196,434.422363 
z"/>
<path fill="#7D8FF4" opacity="1.000000" stroke="none" 
	d="
M675.521301,414.714355 
	C675.391846,414.804901 675.278625,414.674805 675.220825,414.403656 
	C675.213806,414.315063 675.475159,414.546143 675.521301,414.714355 
z"/>
<path fill="#AC79F9" opacity="1.000000" stroke="none" 
	d="
M900.176270,410.616821 
	C900.098450,410.720734 899.972229,410.343903 899.959351,410.244568 
	C900.154907,410.179504 900.257385,410.302063 900.176270,410.616821 
z"/>
<path fill="#C26FF8" opacity="1.000000" stroke="none" 
	d="
M748.107056,403.780945 
	C747.859436,403.850800 747.703552,403.685760 747.603882,403.491760 
	C747.573242,403.432129 747.696411,403.293457 747.900635,403.105377 
	C748.108337,403.191467 748.164429,403.363159 748.107056,403.780945 
z"/>
<path fill="#131928" opacity="1.000000" stroke="none" 
	d="
M345.788513,487.468231 
	C345.763306,477.307800 345.823853,467.607880 345.799072,457.444366 
	C345.784637,442.662628 346.501038,428.312378 345.791046,414.033081 
	C344.345703,384.964172 367.998718,355.288849 403.584198,355.971252 
	C405.748322,356.012756 407.914154,355.965271 410.542419,355.887146 
	C434.029114,355.868622 457.052612,355.922119 480.539978,355.899170 
	C499.699371,355.879272 518.394897,355.935791 537.557129,355.918640 
	C558.669922,355.906982 579.316040,356.029083 599.961975,356.016968 
	C631.102478,355.998688 655.818970,380.425079 656.022278,411.551300 
	C656.071167,419.044891 656.036621,426.538971 656.110352,434.490753 
	C656.097473,462.315796 656.014709,489.682922 655.985657,517.513062 
	C654.252014,529.204834 650.447266,539.585327 642.510681,547.976318 
	C631.343140,559.783264 617.615845,566.040039 601.245972,566.092468 
	C576.436829,566.171997 551.627625,566.208740 526.380371,566.331055 
	C508.152496,566.343201 490.360565,566.138977 472.575165,566.392639 
	C469.892639,566.430908 466.700531,568.014771 464.659851,569.883606 
	C448.114319,585.035583 431.787323,600.426208 414.835144,616.067017 
	C414.025085,616.379578 413.773621,616.369202 413.522186,616.358765 
	C413.545105,608.216614 413.568024,600.074524 413.535278,591.467285 
	C413.506531,586.366272 413.574219,581.730042 413.550934,577.094299 
	C413.514862,569.899170 409.709595,566.482483 402.468262,566.116150 
	C396.566040,565.817505 390.702789,564.748657 384.418030,564.026733 
	C370.359802,558.922302 359.221985,550.801758 352.091583,537.729248 
	C347.931580,530.102539 346.206543,521.878479 345.954254,513.345581 
	C345.703949,504.879944 345.883362,496.401581 345.788513,487.468231 
M525.480896,410.134003 
	C527.166016,404.627502 528.851074,399.120972 530.662842,393.200500 
	C524.608276,391.547455 519.092896,390.041595 513.296936,388.459167 
	C498.430969,434.715363 483.729980,480.458160 468.908539,526.575745 
	C475.193695,527.949951 480.930695,529.204285 487.101166,530.553345 
	C499.914825,490.280670 512.547302,450.577484 525.480896,410.134003 
M442.450287,499.040497 
	C445.325958,501.506470 448.201630,503.972443 451.130676,506.484222 
	C455.949463,502.330597 460.452911,498.448792 465.284607,494.284058 
	C451.354431,482.218567 437.736542,470.423553 423.886139,458.427155 
	C437.743591,446.488708 451.165894,434.925171 464.900909,423.092224 
	C460.001556,418.806824 455.556061,414.918396 450.806152,410.763702 
	C432.316620,426.688751 414.058655,442.414337 395.522827,458.379211 
	C411.252075,472.011780 426.580811,485.297211 442.450287,499.040497 
M587.458801,442.052582 
	C575.720337,431.733093 563.981812,421.413574 552.013184,410.891785 
	C547.339417,414.902618 542.749878,418.841156 537.919189,422.986633 
	C551.651611,435.173248 564.890747,446.922058 578.306335,458.827423 
	C564.505859,470.882507 551.125671,482.570465 537.545410,494.433197 
	C542.605835,498.673126 547.397766,502.688110 552.266357,506.767303 
	C570.458862,490.693542 588.259888,474.965759 606.425781,458.915588 
	C599.907410,453.117249 593.950073,447.818024 587.458801,442.052582 
z"/>
<path fill="#131928" opacity="1.000000" stroke="none" 
	d="
M1120.024048,542.108765 
	C1115.877686,542.107056 1112.225830,542.107056 1108.562012,542.107056 
	C1109.041504,533.899658 1115.196045,528.077942 1123.418335,527.834045 
	C1132.211304,527.573181 1138.905029,533.242676 1139.904541,542.110413 
	C1133.421509,542.110413 1126.970093,542.110413 1120.024048,542.108765 
z"/>
<path fill="#131928" opacity="1.000000" stroke="none" 
	d="
M935.877625,572.111511 
	C926.386108,571.683960 921.725525,566.303650 924.955933,559.797241 
	C927.151733,555.374573 931.522034,554.595764 935.898926,554.162659 
	C937.381226,554.015991 938.889099,554.122314 940.385254,554.120911 
	C943.524109,554.117859 946.662903,554.119995 949.731445,554.119995 
	C951.970825,563.919495 946.953064,570.499756 935.877625,572.111511 
z"/>
<path fill="#7D8FF4" opacity="1.000000" stroke="none" 
	d="
M413.552551,616.505371 
	C413.773621,616.369202 414.025085,616.379578 414.652893,616.360596 
	C414.547150,616.438110 414.065033,616.545044 413.552551,616.505371 
z"/>
<path fill="#131928" opacity="1.000000" stroke="none" 
	d="
M853.384644,439.030151 
	C849.521057,435.132294 846.040649,431.284943 842.305542,427.209595 
	C841.796265,424.193909 841.111511,421.366669 841.362976,418.625336 
	C842.358521,407.773865 849.683716,400.304718 859.930237,399.296997 
	C869.220825,398.383331 877.547791,404.668488 881.156738,415.596497 
	C881.792297,423.221466 880.537231,429.924103 874.980103,435.619904 
	C868.344543,440.538086 861.416992,442.222290 853.384644,439.030151 
z"/>
<path fill="#131928" opacity="1.000000" stroke="none" 
	d="
M938.325989,438.291992 
	C935.130249,433.655487 932.284790,429.120483 929.239807,424.282043 
	C929.099915,416.554199 929.594421,409.280029 936.109253,403.747620 
	C936.288330,403.472748 936.279419,403.437531 936.573853,403.321289 
	C937.679321,402.588226 938.490479,401.971436 939.301636,401.354614 
	C939.301575,401.354614 939.207520,401.284790 939.544189,401.262482 
	C940.479004,400.893677 941.077087,400.547150 941.675232,400.200623 
	C945.514099,400.111267 949.352966,400.021881 953.760742,400.210938 
	C954.882812,400.614380 955.435974,400.739441 955.989075,400.864471 
	C955.989075,400.864471 956.370239,401.075867 956.588013,401.077026 
	C967.389832,409.055023 970.555054,421.209106 964.198730,431.732635 
	C962.363525,434.771027 958.866943,436.805939 955.927734,439.585388 
	C949.811829,442.025299 944.122986,441.606934 938.325989,438.291992 
z"/>
<path fill="#AC79F9" opacity="1.000000" stroke="none" 
	d="
M938.947266,401.284424 
	C938.490479,401.971436 937.679321,402.588226 936.573486,403.303192 
	C937.050049,402.672302 937.821472,401.943237 938.947266,401.284424 
z"/>
<path fill="#9982FA" opacity="1.000000" stroke="none" 
	d="
M955.796875,400.656769 
	C955.435974,400.739441 954.882812,400.614380 954.165771,400.247864 
	C954.536072,400.153931 955.070435,400.301483 955.796875,400.656769 
z"/>
<path fill="#AC79F9" opacity="1.000000" stroke="none" 
	d="
M941.291565,400.176544 
	C941.077087,400.547150 940.479004,400.893677 939.535583,401.320435 
	C939.762817,400.984589 940.335327,400.568512 941.291565,400.176544 
z"/>
<path fill="#131928" opacity="1.000000" stroke="none" 
	d="
M1017.263428,411.357300 
	C1022.691406,397.401855 1032.689453,393.761566 1045.312744,401.302490 
	C1046.139648,401.897766 1046.493896,402.109863 1046.848145,402.321991 
	C1046.848145,402.321991 1046.840576,402.148590 1046.845703,402.438843 
	C1047.148804,402.944214 1047.446655,403.159363 1047.744629,403.374481 
	C1047.744629,403.374481 1047.718384,403.414581 1047.712158,403.437805 
	C1048.774414,406.150452 1049.842896,408.839874 1051.327271,412.575867 
	C1044.682129,412.575867 1039.127686,412.689545 1033.580078,412.543457 
	C1028.185669,412.401459 1022.798279,411.993286 1017.263428,411.357300 
z"/>
<path fill="#9982FA" opacity="1.000000" stroke="none" 
	d="
M1047.680542,403.090210 
	C1047.446655,403.159363 1047.148804,402.944214 1046.761597,402.460205 
	C1046.987061,402.396179 1047.301758,402.601074 1047.680542,403.090210 
z"/>
<path fill="#9982FA" opacity="1.000000" stroke="none" 
	d="
M1046.713135,402.029968 
	C1046.493896,402.109863 1046.139648,401.897766 1045.628418,401.411133 
	C1045.840332,401.337067 1046.209229,401.537537 1046.713135,402.029968 
z"/>
<path fill="#FAFAFA" opacity="1.000000" stroke="none" 
	d="
M525.330322,410.504150 
	C512.547302,450.577484 499.914825,490.280670 487.101166,530.553345 
	C480.930695,529.204285 475.193695,527.949951 468.908539,526.575745 
	C483.729980,480.458160 498.430969,434.715363 513.296936,388.459167 
	C519.092896,390.041595 524.608276,391.547455 530.662842,393.200500 
	C528.851074,399.120972 527.166016,404.627502 525.330322,410.504150 
z"/>
<path fill="#FAFAFA" opacity="1.000000" stroke="none" 
	d="
M442.179932,498.811584 
	C426.580811,485.297211 411.252075,472.011780 395.522827,458.379211 
	C414.058655,442.414337 432.316620,426.688751 450.806152,410.763702 
	C455.556061,414.918396 460.001556,418.806824 464.900909,423.092224 
	C451.165894,434.925171 437.743591,446.488708 423.886139,458.427155 
	C437.736542,470.423553 451.354431,482.218567 465.284607,494.284058 
	C460.452911,498.448792 455.949463,502.330597 451.130676,506.484222 
	C448.201630,503.972443 445.325958,501.506470 442.179932,498.811584 
z"/>
<path fill="#FAFAFA" opacity="1.000000" stroke="none" 
	d="
M587.725830,442.285706 
	C593.950073,447.818024 599.907410,453.117249 606.425781,458.915588 
	C588.259888,474.965759 570.458862,490.693542 552.266357,506.767303 
	C547.397766,502.688110 542.605835,498.673126 537.545410,494.433197 
	C551.125671,482.570465 564.505859,470.882507 578.306335,458.827423 
	C564.890747,446.922058 551.651611,435.173248 537.919189,422.986633 
	C542.749878,418.841156 547.339417,414.902618 552.013184,410.891785 
	C563.981812,421.413574 575.720337,431.733093 587.725830,442.285706 
z"/>
</svg>